<?xml version="1.0" encoding="UTF-8"?>
<svg id="Layer_1" xmlns="http://www.w3.org/2000/svg" viewBox="0 0 272.51 314.67">
  <defs>
    <style>
      .cls-1 {
        fill: #fff;
      }

      .cls-2 {
        fill: #257ab5;
      }
    </style>
  </defs>
  <polygon class="cls-2" points="244.4 204.27 244.4 224.88 240.21 224.88 240.21 216.05 232.06 216.05 232.06 224.88 227.87 224.88 227.87 204.27 232.06 204.27 232.06 212.62 240.21 212.62 240.21 204.27 244.4 204.27"/>
  <polygon class="cls-2" points="227.26 117.83 227.26 138.45 223.07 138.45 223.07 129.61 214.91 129.61 214.91 138.45 210.73 138.45 210.73 117.83 214.91 117.83 214.91 126.19 223.07 126.19 223.07 117.83 227.26 117.83"/>
  <path class="cls-2" d="M162.98,97.23c-.87-1.87-2.1-3.3-3.69-4.29-1.58-1-3.4-1.5-5.44-1.5s-3.86.5-5.44,1.5c-1.59.99-2.82,2.42-3.69,4.29-.55,1.17-.92,2.45-1.12,3.85-.12.82-.18,1.69-.18,2.6v1.11c0,.25,0,.49.02.73.07,2.15.49,4.06,1.25,5.71.36.77.78,1.47,1.27,2.09.67.87,1.47,1.6,2.4,2.18,1.15.73,2.42,1.2,3.82,1.4.53.07,1.07.11,1.64.11,1.33,0,2.57-.22,3.71-.64h0c.6-.23,1.17-.51,1.72-.85,1.6-.99,2.83-2.41,3.71-4.25.04-.08.07-.15.1-.23.81-1.78,1.21-3.82,1.22-6.12v-1.23c0-2.45-.43-4.6-1.3-6.46ZM159.17,104.79c0,.68-.03,1.32-.1,1.92-.13,1.2-.4,2.24-.81,3.11-.13.31-.29.61-.47.88-.92,1.4-2.25,2.1-3.97,2.1-.38,0-.74-.03-1.08-.11-1.18-.22-2.12-.86-2.83-1.91-.6-.89-1-2.05-1.21-3.48-.11-.74-.17-1.55-.17-2.43v-1.23c0-.6.03-1.16.08-1.69.16-1.78.59-3.2,1.3-4.24.92-1.35,2.23-2.03,3.94-2.03s3,.67,3.92,2.01c.92,1.34,1.39,3.3,1.4,5.89v1.21Z"/>
  <polygon class="cls-2" points="118.65 246.31 118.65 266.92 114.47 266.92 114.47 258.09 106.31 258.09 106.31 266.92 102.13 266.92 102.13 246.31 106.31 246.31 106.31 254.66 114.47 254.66 114.47 246.31 118.65 246.31"/>
  <polygon class="cls-2" points="209.17 165.74 209.17 190.62 204.12 190.62 194.29 174.25 194.29 190.62 189.24 190.62 189.24 165.74 194.29 165.74 204.14 182.15 204.14 165.74 209.17 165.74"/>
  <path class="cls-2" d="M162.94,219.59c-1.79.17-3.5.6-5.11,1.24l-8.54-25.14c1.7-.53,3.31-1.26,4.8-2.17l8.85,26.07Z"/>
  <path class="cls-2" d="M60.78,138.48c-4.09,2.44-7.41,6.23-9.22,11.02-.05.09-.09.2-.12.29-1.55,4.26-1.69,8.69-.66,12.79l-14.25,17.74c-.18-.08-.37-.15-.56-.22-.77-.28-1.55-.52-2.32-.71-4.69-1.14-9.46-.67-13.67,1.11-3.87,1.63-7.26,4.37-9.68,7.98l-10.3-1.58v-108.23l2.77-1.6,35.63,9.12c1.5,7.16,6.56,13.4,13.93,16.08.11.04.22.08.34.11.69.24,1.38.44,2.08.61l6.03,35.49Z"/>
  <g>
    <path class="cls-2" d="M156.56,123.54l-4.3,31.54c-1.12-.54-2.3-.99-3.52-1.34-.51-.15-1.02-.27-1.54-.38l4.07-29.85c.88.14,1.79.2,2.71.2.28,0,.55-.01.82-.02.6-.02,1.18-.07,1.76-.15Z"/>
    <path class="cls-2" d="M272.51,78.67v157.33l-136.26,78.67L0,236v-30.76l7.4,1.35c1.84,6.55,6.7,12.15,13.59,14.66.12.04.23.08.34.11,6.3,2.19,12.93,1.32,18.27-1.82,4.23-2.49,7.64-6.41,9.45-11.37,1.92-5.28,1.69-10.82-.26-15.64l.45-.54,12.89-15.17c.77.38,1.56.73,2.39,1.03.12.04.23.08.35.11,6.29,2.18,12.92,1.32,18.26-1.82,2.49-1.47,4.7-3.44,6.46-5.82l31.55,8.08c.44,2.61,1.33,5.06,2.61,7.27.03.07.07.15.12.22.48.82,1.01,1.61,1.61,2.36.86,1.1,1.81,2.12,2.86,3.02,2.08,1.84,4.52,3.28,7.2,4.2,1.92.68,3.96,1.08,6.08,1.19l10.33,27.84c-1.53,1.39-2.83,3.04-3.84,4.86-1.27,2.3-2.07,4.89-2.29,7.64l-.47.15-25.42,7.89c-2.53-2.03-5.75-3.24-9.24-3.24-8.18,0-14.81,6.63-14.81,14.81s6.63,14.81,14.81,14.81c2.49,0,4.85-.62,6.91-1.72,3.2-1.69,5.71-4.52,6.97-7.96l28.69-8.04c.06.06.13.11.2.16,1.82,1.36,3.9,2.39,6.14,3.02,1.66.48,3.4.73,5.21.73.28,0,.55-.01.82-.02,1.84-.07,3.6-.41,5.26-.98,1.95-.64,3.77-1.61,5.38-2.82,4.61-3.48,7.6-9.01,7.6-15.23,0-9.23-6.56-16.93-15.28-18.68l-.16-.47-9.98-29.37c1.63-1.67,2.99-3.6,4.02-5.73l18.99.92s.02.05.03.08c1.33,3.05,3.45,5.67,6.09,7.63,1.82,1.36,3.9,2.39,6.14,3.02,1.66.48,3.4.73,5.21.73.28,0,.55-.01.82-.02,1.37-.05,2.7-.25,3.98-.6l18.01,16.66c-.08.6-.12,1.22-.12,1.84,0,8.18,6.63,14.81,14.81,14.81,2.49,0,4.85-.62,6.91-1.72,4.69-2.48,7.89-7.41,7.89-13.09,0-.79-.06-1.56-.18-2.32-1.11-7.08-7.24-12.49-14.62-12.49-.91,0-1.8.08-2.66.24l-16.75-16.37c.63-1.88.97-3.9.97-5.99,0-4.69-1.7-9-4.51-12.32l9.6-22.88c1.1-.28,2.14-.7,3.12-1.22,4.69-2.48,7.89-7.41,7.89-13.09,0-.79-.06-1.56-.18-2.32-1.11-7.08-7.24-12.49-14.62-12.49-8.18,0-14.81,6.63-14.81,14.81,0,2.89.83,5.59,2.27,7.87l-10.3,22.75c-5.94.76-11.03,4.27-13.94,9.22l-19.51-1.48c-1.3-3.18-3.33-5.99-5.89-8.2l4.97-36.38c1.2-.56,2.32-1.24,3.36-2.02,4.61-3.48,7.6-9.01,7.6-15.23,0-10.53-8.53-19.06-19.06-19.06s-19.06,8.53-19.06,19.06c0,1.94.29,3.82.84,5.58h0c.22.72.48,1.42.78,2.09.84,1.92,1.99,3.68,3.39,5.2.82.89,1.73,1.71,2.7,2.43.65.48,1.32.92,2.03,1.32l-5.25,31.87c-.65.1-1.28.23-1.91.39-1.29.31-2.53.74-3.71,1.27-.77.34-1.51.73-2.23,1.16-1.37.82-2.65,1.78-3.8,2.87-.53.49-1.03,1.01-1.5,1.56-.13.14-.25.29-.36.44l-32.32-7.32c-.37-2.11-1.05-4.15-2-6.05-2.42-4.84-6.6-8.78-12.08-10.77-.17-.06-.33-.12-.5-.17l-7.25-36.48c3.85-2.5,6.95-6.23,8.63-10.86,2.15-5.89,1.61-12.11-1-17.3-2.41-4.84-6.6-8.77-12.08-10.77-.77-.28-1.54-.52-2.31-.7-4.7-1.15-9.46-.68-13.68,1.11-3.41,1.43-6.45,3.73-8.77,6.72l-17.58-3.98L136.25,0l136.26,78.67Z"/>
  </g>
  <path class="cls-2" d="M89.08,152.51l-1.31-.3-.61-.14-2.49-.57c-.19.03-.38.05-.55.08-.23.04-.45.09-.67.16h0c-.47.12-.9.29-1.32.5-.67.33-1.28.76-1.83,1.26-1.49,1.37-2.48,3.3-2.89,5.35h0c-.69,3.45.28,7.19,3.35,9.19l.05.04,1.73.44,1.91.49c-3.56,3.56-8.6,5.66-13.99,5.37-1.88-.1-3.66-.49-5.3-1.12-6.32-2.39-10.65-8.3-10.74-15.17v-.02c-.02-.58.01-1.17.06-1.76.47-5.15,3.23-9.65,7.21-12.57h0c1.99-1.47,4.28-2.55,6.74-3.12h.01c1.62-.39,3.31-.55,5.04-.46h.11c2.33.13,4.51.69,6.46,1.6,4.49,2.09,7.81,6.02,9.04,10.75Z"/>
  <g>
    <path class="cls-1" d="M251.05,212.25c-1.11-7.08-7.24-12.49-14.62-12.49-.91,0-1.8.08-2.66.24l-16.75-16.37c.63-1.88.97-3.9.97-5.99,0-4.69-1.7-9-4.51-12.32l9.6-22.88c1.1-.28,2.14-.7,3.12-1.22,4.69-2.48,7.89-7.41,7.89-13.09,0-.79-.06-1.56-.18-2.32-1.11-7.08-7.24-12.49-14.62-12.49-8.18,0-14.81,6.63-14.81,14.81,0,2.89.83,5.59,2.27,7.87l-10.3,22.75c-5.94.76-11.03,4.27-13.94,9.22l-19.51-1.48c-1.3-3.18-3.33-5.99-5.89-8.2l4.97-36.38c1.2-.56,2.32-1.24,3.36-2.02,4.61-3.48,7.6-9.01,7.6-15.23,0-10.53-8.53-19.06-19.06-19.06s-19.06,8.53-19.06,19.06c0,1.94.29,3.82.84,5.58h0c.22.72.48,1.42.78,2.09.84,1.92,1.99,3.68,3.39,5.2.82.89,1.73,1.71,2.7,2.43.65.48,1.32.92,2.03,1.32l-5.25,31.87c-.65.1-1.28.23-1.91.39-1.29.31-2.53.74-3.71,1.27-.77.34-1.51.73-2.23,1.16-1.37.82-2.65,1.78-3.8,2.87-.53.49-1.03,1.01-1.5,1.56-.13.14-.25.29-.36.44l-32.32-7.32c-.37-2.11-1.05-4.15-2-6.05-2.42-4.84-6.6-8.78-12.08-10.77-.17-.06-.33-.12-.5-.17l-7.25-36.48c3.85-2.5,6.95-6.23,8.63-10.86,2.15-5.89,1.61-12.11-1-17.3-2.41-4.84-6.6-8.77-12.08-10.77-.77-.28-1.54-.52-2.31-.7-4.7-1.15-9.46-.68-13.68,1.11-3.41,1.43-6.45,3.73-8.77,6.72l-17.58-3.98h-.01l-22.18,12.8,35.63,9.12c1.5,7.16,6.56,13.4,13.93,16.08.11.04.22.08.34.11.69.24,1.38.44,2.08.61l6.03,35.49c-4.09,2.44-7.41,6.23-9.22,11.02-.05.09-.09.2-.12.29-1.55,4.26-1.69,8.69-.66,12.79l-14.25,17.74c-.18-.08-.37-.15-.56-.22-.77-.28-1.55-.52-2.32-.71-4.69-1.14-9.46-.67-13.67,1.11-3.87,1.63-7.26,4.37-9.68,7.98l-10.3-1.58v18.34l7.4,1.35c1.84,6.55,6.7,12.15,13.59,14.66.12.04.23.08.34.11,6.3,2.19,12.93,1.32,18.27-1.82,4.23-2.49,7.64-6.41,9.45-11.37,1.92-5.28,1.69-10.82-.26-15.64l.45-.54,12.89-15.17c.77.38,1.56.73,2.39,1.03.12.04.23.08.35.11,6.29,2.18,12.92,1.32,18.26-1.82,2.49-1.47,4.7-3.44,6.46-5.82l31.55,8.08c.44,2.61,1.33,5.06,2.61,7.27.03.07.07.15.12.22.48.82,1.01,1.61,1.61,2.36.86,1.1,1.81,2.12,2.86,3.02,2.08,1.84,4.52,3.28,7.2,4.2,1.92.68,3.96,1.08,6.08,1.19l10.33,27.84c-1.53,1.39-2.83,3.04-3.84,4.86-1.27,2.3-2.07,4.89-2.29,7.64l-.47.15-25.42,7.89c-2.53-2.03-5.75-3.24-9.24-3.24-8.18,0-14.81,6.63-14.81,14.81s6.63,14.81,14.81,14.81c2.49,0,4.85-.62,6.91-1.72,3.2-1.69,5.71-4.52,6.97-7.96l28.69-8.04c.06.06.13.11.2.16,1.82,1.36,3.9,2.39,6.14,3.02,1.66.48,3.4.73,5.21.73.28,0,.55-.01.82-.02,1.84-.07,3.6-.41,5.26-.98,1.95-.64,3.77-1.61,5.38-2.82,4.61-3.48,7.6-9.01,7.6-15.23,0-9.23-6.56-16.93-15.28-18.68l-.16-.47-9.98-29.37c1.63-1.67,2.99-3.6,4.02-5.73l18.99.92s.02.05.03.08c1.33,3.05,3.45,5.67,6.09,7.63,1.82,1.36,3.9,2.39,6.14,3.02,1.66.48,3.4.73,5.21.73.28,0,.55-.01.82-.02,1.37-.05,2.7-.25,3.98-.6l18.01,16.66c-.08.6-.12,1.22-.12,1.84,0,8.18,6.63,14.81,14.81,14.81,2.49,0,4.85-.62,6.91-1.72,4.69-2.48,7.89-7.41,7.89-13.09,0-.79-.06-1.56-.18-2.32ZM46.03,201.64c-.87,9.45-9.42,16.68-19.11,16.15-6.87-.38-12.47-4.57-14.84-10.34-.97-2.36-1.39-4.99-1.14-7.74.36-4.01,2.11-7.62,4.75-10.4,3.57-3.79,8.77-6.05,14.35-5.74,1.2.07,2.36.25,3.47.53l-.14.17-.39.49-1.6,1.99c-.07.18-.13.36-.18.53-2.01,7.03,6.99,14.04,13.33,10.24l.05-.03,1.06-1.24c.42,1.71.56,3.52.39,5.39ZM53.38,94.82v.06s.29,1.76.29,1.76l.24,1.38c-5.23-1.63-9.25-5.63-10.89-10.65-.69-2.07-.96-4.31-.75-6.64.4-4.44,2.51-8.39,5.64-11.27,3.52-3.25,8.34-5.15,13.47-4.87,9.69.53,16.84,8.62,15.98,18.07-.45,4.91-2.98,9.22-6.66,12.15v-.02l-.12-.61-.49-2.51c-.1-.16-.2-.32-.3-.47-4.09-6.07-15.25-3.67-16.41,3.62ZM87.77,152.21l-.61-.14-2.49-.57c-.19.03-.38.05-.55.08-.23.04-.45.09-.67.16h0c-.47.12-.9.29-1.32.5-.67.33-1.28.76-1.83,1.26-1.49,1.37-2.48,3.3-2.89,5.35h0c-.69,3.45.28,7.19,3.35,9.19l.05.04,1.73.44,1.91.49c-3.56,3.56-8.6,5.66-13.99,5.37-1.88-.1-3.66-.49-5.3-1.12-6.32-2.39-10.65-8.3-10.74-15.17v-.02c-.02-.58.01-1.17.06-1.76.47-5.15,3.23-9.65,7.21-12.57h0c1.99-1.47,4.28-2.55,6.74-3.12h.01c1.62-.39,3.31-.55,5.04-.46h.11c2.33.13,4.51.69,6.46,1.6,4.49,2.09,7.81,6.02,9.04,10.75l-1.31-.3ZM118.65,266.92h-4.18v-8.83h-8.16v8.83h-4.18v-20.61h4.18v8.35h8.16v-8.35h4.18v20.61ZM143.44,105.52c-.02-.24-.02-.48-.02-.73v-1.11c0-.91.06-1.78.18-2.6.2-1.4.57-2.68,1.12-3.85.87-1.87,2.1-3.3,3.69-4.29,1.58-1,3.4-1.5,5.44-1.5s3.86.5,5.44,1.5c1.59.99,2.82,2.42,3.69,4.29.87,1.86,1.3,4.01,1.3,6.46v1.23c-.01,2.3-.41,4.34-1.22,6.12-.03.08-.06.15-.1.23-.88,1.84-2.11,3.26-3.71,4.25-.55.34-1.12.62-1.72.84h0c-1.14.43-2.38.65-3.71.65-.57,0-1.11-.04-1.64-.11-1.4-.2-2.67-.67-3.82-1.4-.93-.58-1.73-1.31-2.4-2.18-.49-.62-.91-1.32-1.27-2.09-.76-1.65-1.18-3.56-1.25-5.71ZM156.56,123.54l-4.3,31.54c-1.12-.54-2.3-.99-3.52-1.34-.51-.15-1.02-.27-1.54-.38l4.07-29.85c.88.14,1.79.2,2.71.2.28,0,.55-.01.82-.02.6-.02,1.18-.07,1.76-.15ZM137.27,188.14c-1.77-.8-3.12-1.9-4.04-3.29-.93-1.4-1.4-3.01-1.4-4.85h5.79c0,3.14,1.85,4.71,5.54,4.71,1.37,0,2.44-.28,3.21-.85.77-.57,1.16-1.36,1.16-2.37,0-1.11-.39-1.96-1.16-2.55-.77-.59-2.15-1.22-4.15-1.88-2-.65-3.59-1.3-4.75-1.94-3.18-1.74-4.77-4.09-4.77-7.05,0-1.54.42-2.91,1.28-4.11.85-1.21,2.07-2.15,3.67-2.82,1.6-.68,3.39-1.02,5.37-1.02s3.79.37,5.35,1.1c1.57.74,2.78,1.78,3.65,3.12.86,1.34,1.3,2.86,1.3,4.57h-5.77c0-1.3-.41-2.32-1.22-3.04-.8-.72-1.94-1.08-3.4-1.08s-2.51.3-3.29.91c-.78.6-1.17,1.4-1.17,2.39,0,.92.45,1.7,1.37,2.32.92.63,2.27,1.21,4.05,1.76,3.28,1,5.67,2.25,7.18,3.73,1.5,1.49,2.25,3.33,2.25,5.55,0,2.46-.92,4.39-2.76,5.79-1.83,1.4-4.3,2.1-7.4,2.1-2.15,0-4.12-.4-5.89-1.2ZM168.96,242.68v-16.41h5.03v24.88h-5.04l-9.83-16.37v16.37h-5.05v-24.88h5.05l9.84,16.41ZM162.94,219.59c-1.79.17-3.5.6-5.11,1.24l-8.54-25.14c1.7-.53,3.31-1.26,4.8-2.17l8.85,26.07ZM209.17,190.62h-5.05l-9.83-16.37v16.37h-5.05v-24.88h5.05l9.85,16.41v-16.41h5.03v24.88ZM210.73,117.83h4.18v8.36h8.16v-8.36h4.19v20.62h-4.19v-8.84h-8.16v8.84h-4.18v-20.62ZM244.4,224.88h-4.19v-8.83h-8.15v8.83h-4.19v-20.61h4.19v8.35h8.15v-8.35h4.19v20.61Z"/>
    <path class="cls-1" d="M159.17,103.58v1.21c0,.68-.03,1.32-.1,1.92-.13,1.2-.4,2.24-.81,3.11-.13.31-.29.61-.47.88-.92,1.4-2.25,2.1-3.97,2.1-.38,0-.74-.03-1.08-.11-1.18-.22-2.12-.86-2.83-1.91-.6-.89-1-2.05-1.21-3.48-.11-.74-.17-1.55-.17-2.43v-1.23c0-.6.03-1.16.08-1.69.16-1.78.59-3.2,1.3-4.24.92-1.35,2.23-2.03,3.94-2.03s3,.67,3.92,2.01c.92,1.34,1.39,3.3,1.4,5.89Z"/>
  </g>
  <path class="cls-2" d="M77.36,82.66c-.45,4.91-2.98,9.22-6.66,12.15v-.02l-.12-.61-.49-2.51c-.1-.16-.2-.32-.3-.47-4.09-6.07-15.25-3.67-16.41,3.62v.06s.29,1.76.29,1.76l.24,1.38c-5.23-1.63-9.25-5.63-10.89-10.65-.69-2.07-.96-4.31-.75-6.64.4-4.44,2.51-8.39,5.64-11.27,3.52-3.25,8.34-5.15,13.47-4.87,9.69.53,16.84,8.62,15.98,18.07Z"/>
  <path class="cls-2" d="M46.03,201.64c-.87,9.45-9.42,16.68-19.11,16.15-6.87-.38-12.47-4.57-14.84-10.34-.97-2.36-1.39-4.99-1.14-7.74.36-4.01,2.11-7.62,4.75-10.4,3.57-3.79,8.77-6.05,14.35-5.74,1.2.07,2.36.25,3.47.53l-.14.17-.39.49-1.6,1.99c-.07.18-.13.36-.18.53-2.01,7.03,6.99,14.04,13.33,10.24l.05-.03,1.06-1.24c.42,1.71.56,3.52.39,5.39Z"/>
  <path class="cls-2" d="M151.07,175.9c1.5,1.49,2.25,3.33,2.25,5.55,0,2.46-.92,4.39-2.76,5.79-1.83,1.4-4.3,2.1-7.4,2.1-2.15,0-4.12-.4-5.89-1.2-1.77-.8-3.12-1.9-4.04-3.29-.93-1.4-1.4-3.01-1.4-4.85h5.79c0,3.14,1.85,4.71,5.54,4.71,1.37,0,2.44-.28,3.21-.85.77-.57,1.16-1.36,1.16-2.37,0-1.11-.39-1.96-1.16-2.55-.77-.59-2.15-1.22-4.15-1.88-2-.65-3.59-1.3-4.75-1.94-3.18-1.74-4.77-4.09-4.77-7.05,0-1.54.42-2.91,1.28-4.11.85-1.21,2.07-2.15,3.67-2.82,1.6-.68,3.39-1.02,5.37-1.02s3.79.37,5.35,1.1c1.57.74,2.78,1.78,3.65,3.12.86,1.34,1.3,2.86,1.3,4.57h-5.77c0-1.3-.41-2.32-1.22-3.04-.8-.72-1.94-1.08-3.4-1.08s-2.51.3-3.29.91c-.78.6-1.17,1.4-1.17,2.39,0,.92.45,1.7,1.37,2.32.92.63,2.27,1.21,4.05,1.76,3.28,1,5.67,2.25,7.18,3.73Z"/>
  <polygon class="cls-2" points="173.99 226.27 173.99 251.15 168.95 251.15 159.12 234.78 159.12 251.15 154.07 251.15 154.07 226.27 159.12 226.27 168.96 242.68 168.96 226.27 173.99 226.27"/>
</svg>